<?xml version="1.0" standalone="no"?>
<!DOCTYPE svg PUBLIC "-//W3C//DTD SVG 20010904//EN"
 "http://www.w3.org/TR/2001/REC-SVG-20010904/DTD/svg10.dtd">
<svg version="1.0" xmlns="http://www.w3.org/2000/svg"
 width="750.000000pt" height="750.000000pt" viewBox="0 0 750.000000 750.000000"
 preserveAspectRatio="xMidYMid meet">
<metadata>
Created by potrace 1.14, written by Peter Selinger 2001-2017
</metadata>
<g transform="translate(0.000000,750.000000) scale(0.100000,-0.100000)"
fill="#000000" stroke="none">
<path d="M4318 7315 c-2 -1 -226 -6 -498 -10 -826 -11 -816 -11 -840 -40 -17
-20 22 -55 63 -56 92 -2 601 -8 1157 -14 344 -4 751 -8 905 -10 154 -2 568 -6
920 -10 1042 -11 1122 -12 1131 -18 5 -3 8 -65 7 -139 -2 -139 -10 -846 -18
-1668 -3 -267 -7 -665 -10 -885 -11 -963 -18 -1656 -17 -1733 0 -84 11 -117
32 -96 15 15 17 38 25 199 4 77 9 167 10 200 2 33 6 113 9 178 4 65 8 151 11
190 8 145 19 380 30 652 4 88 8 196 10 240 3 75 10 244 20 500 3 61 7 198 10
305 3 107 8 245 10 305 3 100 7 278 21 840 2 105 6 386 9 627 3 354 2 437 -9
441 -13 5 -2982 7 -2988 2z"/>
<path d="M210 7283 c2 -52 -11 -3601 -14 -3943 -4 -445 -7 -1449 -6 -2586 l0
-531 233 2 c234 2 327 14 327 40 0 12 -20 20 -80 32 -14 3 -108 6 -210 7
l-185 2 2 349 c1 193 5 706 9 1140 16 1541 10 3671 -11 4610 -2 88 -6 311 -10
497 l-6 336 95 4 c108 3 143 20 80 37 -44 12 -224 15 -224 4z"/>
<path d="M539 6948 c-1 -24 -7 -617 -13 -1428 -4 -443 -9 -1003 -11 -1245 -10
-1136 -17 -2223 -19 -2771 -1 -579 0 -603 18 -623 28 -30 42 -26 59 18 16 39
18 108 32 976 22 1406 41 3476 44 4737 l1 237 1303 1 c716 1 1574 3 1907 6
333 3 821 6 1085 8 488 3 525 5 525 40 0 8 -12 18 -27 23 -16 5 -410 10 -913
11 -1055 3 -2519 10 -3372 17 -493 4 -618 3 -619 -7z"/>
<path d="M3708 6645 c-2 -1 -64 -5 -138 -9 -74 -3 -144 -8 -155 -10 -11 -2
-42 -7 -70 -10 -551 -72 -1099 -325 -1524 -705 -463 -414 -779 -956 -906
-1554 -15 -67 -29 -142 -31 -167 -3 -25 -7 -51 -9 -58 -27 -80 -26 -656 1
-797 2 -11 11 -60 20 -109 124 -711 546 -1382 1145 -1820 94 -69 119 -85 259
-169 324 -194 729 -324 1165 -374 89 -10 491 -10 570 0 117 16 260 38 277 43
10 3 30 8 45 10 149 27 403 111 585 194 331 150 590 331 853 595 199 198 334
373 467 605 120 208 249 524 293 715 23 103 56 271 61 315 3 30 8 57 9 60 7
11 18 237 19 350 0 108 -11 296 -19 338 -2 11 -6 43 -10 72 -4 29 -9 62 -11
74 -2 12 -7 35 -9 51 -20 110 -102 405 -134 480 -5 11 -25 61 -46 110 -138
333 -363 663 -631 926 -188 184 -276 256 -469 382 -275 179 -694 352 -975 401
-14 2 -36 7 -50 10 -28 6 -84 15 -145 22 -22 3 -47 7 -55 9 -24 7 -376 25
-382 20z"/>
<path d="M6816 6287 c-16 -24 -20 -82 -41 -597 -12 -288 -14 -358 -20 -530 -3
-96 -8 -222 -10 -280 -4 -95 -9 -292 -20 -710 -23 -866 -23 -2337 0 -3030 8
-247 18 -508 20 -540 1 -19 3 -48 4 -65 1 -26 3 -27 15 -15 12 12 16 67 21
265 4 138 8 313 10 390 2 77 6 241 10 365 3 124 7 306 10 405 3 99 7 288 10
420 3 132 7 335 10 450 4 197 12 582 20 1035 8 453 18 1470 19 1921 1 402 -1
491 -13 512 -18 33 -26 34 -45 4z"/>
<path d="M4398 695 c-2 -1 -109 -6 -238 -9 -470 -13 -747 -24 -779 -31 -32 -6
-45 -20 -38 -39 13 -34 57 -38 407 -36 1160 5 1730 9 1768 15 61 8 112 31 112
50 0 9 -17 23 -37 33 -34 14 -102 16 -615 18 -317 1 -578 1 -580 -1z"/>
<path d="M5477 314 c-1 -1 -209 -4 -462 -8 -253 -3 -557 -8 -675 -11 -118 -2
-341 -7 -495 -10 -851 -16 -875 -17 -875 -44 0 -6 8 -15 18 -20 31 -16 2154
-28 3062 -16 846 10 940 15 962 48 11 17 -2 35 -30 43 -15 4 -34 9 -42 11 -14
4 -1458 11 -1463 7z"/>
</g>
</svg>
